<svg version="1.1" xmlns="http://www.w3.org/2000/svg" xmlns:xlink="http://www.w3.org/1999/xlink" width="175.72727" height="203.94584" viewBox="0,0,175.72727,203.94584"><defs><linearGradient x1="240.00001" y1="78.02706" x2="240.00001" y2="281.97292" gradientUnits="userSpaceOnUse" id="color-1"><stop offset="0" stop-color="#00ff22"/><stop offset="1" stop-color="#fade00"/></linearGradient></defs><g transform="translate(-152.13637,-78.02707)"><g data-paper-data="{&quot;isPaintingLayer&quot;:true}" fill="url(#color-1)" fill-rule="nonzero" stroke="none" stroke-width="0" stroke-linecap="butt" stroke-linejoin="miter" stroke-miterlimit="10" stroke-dasharray="" stroke-dashoffset="0" style="mix-blend-mode: normal"><path d="M209.86364,281.97292c0,0 -0.90909,-110.45119 -0.90909,-142.38538c0,-5.06688 -37.17346,38.26658 -37.17346,38.26658c0,0 -19.64471,-20.62211 -19.64471,-21.96788c0,-6.99293 28.75768,-44.59053 57.72727,-58.91332c28.96959,-14.32279 52.57628,-27.37436 85.88918,-12.09177c24.20936,11.10627 32.11082,37.20014 32.11082,52.75842c0,8.41849 -3.27968,29.33713 -16.51287,39.03026c-18.777,13.7539 -49.48713,16.05377 -49.48713,23.96974c0,30.20631 0,81.33335 0,81.33335z"/></g></g></svg>
